<?xml version="1.0" encoding="utf-8"?>
<!-- Generator: Adobe Illustrator 27.0.0, SVG Export Plug-In . SVG Version: 6.00 Build 0)  -->
<svg version="1.1" id="Layer_1" xmlns="http://www.w3.org/2000/svg" xmlns:xlink="http://www.w3.org/1999/xlink" x="0px" y="0px"
	 viewBox="0 0 501.27 95.09" style="enable-background:new 0 0 501.27 95.09;" xml:space="preserve">
<style type="text/css">
	.st0{fill:#343332;}
	.st1{fill:#00B1DD;}
	.st2{fill:#D1D3D4;}
	.st3{opacity:0.55;fill:#1A1A1A;}
</style>
<g>
	<g>
		<g>
			<path class="st0" d="M143.95,67.07h6.37c1.2,0,2.39,0.07,3.57,0.21c1.18,0.14,2.25,0.45,3.18,0.91c0.94,0.47,1.7,1.16,2.29,2.06
				c0.58,0.9,0.88,2.13,0.88,3.68c0,1.83-0.55,3.31-1.65,4.43c-1.1,1.13-2.63,1.84-4.57,2.15l7.07,11.47h-3.62l-6.75-11.19h-3.8
				v11.19h-2.96V67.07z M146.91,78.05h2.64c0.82,0,1.67-0.02,2.55-0.07c0.88-0.05,1.69-0.2,2.43-0.46c0.74-0.26,1.35-0.66,1.83-1.21
				c0.48-0.55,0.72-1.34,0.72-2.38c0-0.89-0.18-1.61-0.53-2.15c-0.35-0.54-0.82-0.95-1.39-1.25c-0.57-0.29-1.22-0.49-1.93-0.58
				c-0.72-0.09-1.44-0.14-2.16-0.14h-4.15V78.05z"/>
			<path class="st0" d="M176.01,67.07h15.66v2.75h-12.7v7.81h11.86v2.74h-11.86v8.87h13.34v2.74h-16.29V67.07z"/>
			<path class="st0" d="M219.25,71.47c-0.49-0.8-1.15-1.38-1.97-1.74c-0.82-0.36-1.68-0.55-2.57-0.55c-0.66,0-1.3,0.08-1.93,0.25
				c-0.63,0.17-1.2,0.41-1.71,0.74c-0.51,0.33-0.91,0.76-1.21,1.3c-0.31,0.54-0.46,1.17-0.46,1.9c0,0.56,0.09,1.06,0.27,1.5
				c0.18,0.44,0.46,0.83,0.86,1.18c0.4,0.35,0.94,0.68,1.62,0.98c0.68,0.31,1.51,0.61,2.5,0.91c0.96,0.31,1.89,0.63,2.8,0.98
				c0.9,0.35,1.7,0.8,2.39,1.34c0.69,0.54,1.24,1.21,1.65,2.02c0.41,0.81,0.62,1.82,0.62,3.04c0,1.24-0.25,2.32-0.74,3.24
				c-0.49,0.91-1.14,1.67-1.95,2.27c-0.81,0.6-1.74,1.04-2.8,1.34c-1.06,0.29-2.15,0.44-3.27,0.44c-0.73,0-1.45-0.06-2.18-0.19
				c-0.73-0.13-1.43-0.33-2.09-0.6c-0.67-0.27-1.3-0.62-1.88-1.06c-0.59-0.43-1.09-0.97-1.51-1.6l2.53-2.07
				c0.54,0.91,1.29,1.61,2.25,2.07c0.96,0.47,1.98,0.7,3.06,0.7c0.63,0,1.27-0.09,1.92-0.28c0.64-0.19,1.23-0.46,1.74-0.83
				c0.52-0.36,0.94-0.81,1.27-1.36c0.33-0.54,0.49-1.16,0.49-1.86c0-0.77-0.13-1.4-0.39-1.88c-0.26-0.48-0.66-0.9-1.2-1.25
				c-0.54-0.35-1.22-0.67-2.04-0.95c-0.82-0.28-1.78-0.61-2.89-0.99c-0.89-0.28-1.71-0.6-2.46-0.97c-0.75-0.36-1.4-0.81-1.95-1.34
				c-0.55-0.53-0.99-1.16-1.3-1.9c-0.32-0.74-0.48-1.62-0.48-2.66c0-1.2,0.24-2.24,0.7-3.13c0.47-0.89,1.1-1.64,1.9-2.23
				c0.8-0.6,1.7-1.05,2.71-1.36c1.01-0.3,2.06-0.46,3.17-0.46c1.41,0,2.69,0.22,3.85,0.65c1.16,0.44,2.2,1.19,3.11,2.27
				L219.25,71.47z"/>
			<path class="st0" d="M253.32,69.82h-8.23v22.17h-2.96V69.82h-8.23v-2.75h19.42V69.82z"/>
			<path class="st0" d="M277.99,92.62c-1.9,0-3.64-0.33-5.23-0.98c-1.58-0.66-2.96-1.57-4.12-2.73c-1.16-1.16-2.06-2.55-2.71-4.15
				c-0.64-1.61-0.97-3.35-0.97-5.23c0-1.88,0.32-3.62,0.97-5.22c0.65-1.61,1.55-2.99,2.71-4.15c1.16-1.16,2.53-2.07,4.12-2.73
				c1.58-0.66,3.32-0.98,5.23-0.98c1.9,0,3.64,0.33,5.22,0.98c1.58,0.66,2.96,1.57,4.12,2.73c1.16,1.16,2.06,2.55,2.71,4.15
				c0.64,1.61,0.97,3.35,0.97,5.22c0,1.88-0.32,3.62-0.97,5.23c-0.65,1.61-1.55,2.99-2.71,4.15c-1.16,1.16-2.53,2.07-4.12,2.73
				C281.63,92.29,279.89,92.62,277.99,92.62z M277.99,89.87c1.45,0,2.78-0.27,3.99-0.81c1.21-0.54,2.25-1.28,3.11-2.22
				c0.87-0.94,1.54-2.03,2.02-3.29c0.48-1.25,0.72-2.6,0.72-4.03c0-1.43-0.24-2.77-0.72-4.03c-0.48-1.26-1.16-2.35-2.02-3.29
				c-0.87-0.94-1.91-1.68-3.11-2.22c-1.21-0.54-2.54-0.81-3.99-0.81c-1.46,0-2.79,0.27-3.99,0.81c-1.21,0.54-2.25,1.28-3.11,2.22
				c-0.87,0.94-1.54,2.03-2.02,3.29c-0.48,1.26-0.72,2.6-0.72,4.03c0,1.43,0.24,2.78,0.72,4.03c0.48,1.26,1.16,2.35,2.02,3.29
				c0.87,0.94,1.9,1.68,3.11,2.22C275.21,89.6,276.54,89.87,277.99,89.87z"/>
			<path class="st0" d="M304.72,67.07h6.37c1.2,0,2.39,0.07,3.57,0.21c1.18,0.14,2.25,0.45,3.18,0.91c0.94,0.47,1.7,1.16,2.29,2.06
				c0.58,0.9,0.88,2.13,0.88,3.68c0,1.83-0.55,3.31-1.65,4.43c-1.1,1.13-2.63,1.84-4.57,2.15l7.07,11.47h-3.62l-6.75-11.19h-3.8
				v11.19h-2.96V67.07z M307.67,78.05h2.64c0.82,0,1.67-0.02,2.55-0.07c0.88-0.05,1.69-0.2,2.43-0.46c0.74-0.26,1.35-0.66,1.83-1.21
				c0.48-0.55,0.72-1.34,0.72-2.38c0-0.89-0.18-1.61-0.53-2.15c-0.35-0.54-0.82-0.95-1.39-1.25c-0.57-0.29-1.22-0.49-1.93-0.58
				c-0.72-0.09-1.44-0.14-2.16-0.14h-4.15V78.05z"/>
			<path class="st0" d="M344.87,67.07h2.78l10.59,24.91h-3.45l-2.53-6.12H339.8l-2.57,6.12h-3.34L344.87,67.07z M346.2,70.87h-0.07
				l-5.17,12.25h10.17L346.2,70.87z"/>
			<path class="st0" d="M385.58,69.82h-8.23v22.17h-2.96V69.82h-8.23v-2.75h19.42V69.82z"/>
			<path class="st0" d="M399.62,67.07h2.96v24.91h-2.96V67.07z"/>
			<path class="st0" d="M429.95,92.62c-1.9,0-3.64-0.33-5.23-0.98s-2.96-1.57-4.12-2.73c-1.16-1.16-2.06-2.55-2.71-4.15
				c-0.64-1.61-0.97-3.35-0.97-5.23c0-1.88,0.32-3.62,0.97-5.22c0.65-1.61,1.55-2.99,2.71-4.15c1.16-1.16,2.53-2.07,4.12-2.73
				s3.32-0.98,5.23-0.98c1.9,0,3.64,0.33,5.22,0.98c1.58,0.66,2.96,1.57,4.12,2.73c1.16,1.16,2.06,2.55,2.71,4.15
				c0.64,1.61,0.97,3.35,0.97,5.22c0,1.88-0.32,3.62-0.97,5.23c-0.65,1.61-1.55,2.99-2.71,4.15c-1.16,1.16-2.53,2.07-4.12,2.73
				C433.6,92.29,431.85,92.62,429.95,92.62z M429.95,89.87c1.45,0,2.78-0.27,3.99-0.81c1.21-0.54,2.25-1.28,3.11-2.22
				c0.87-0.94,1.54-2.03,2.02-3.29c0.48-1.25,0.72-2.6,0.72-4.03c0-1.43-0.24-2.77-0.72-4.03c-0.48-1.26-1.16-2.35-2.02-3.29
				c-0.87-0.94-1.91-1.68-3.11-2.22c-1.21-0.54-2.54-0.81-3.99-0.81c-1.46,0-2.79,0.27-3.99,0.81c-1.21,0.54-2.25,1.28-3.11,2.22
				c-0.87,0.94-1.54,2.03-2.02,3.29c-0.48,1.26-0.72,2.6-0.72,4.03c0,1.43,0.24,2.78,0.72,4.03c0.48,1.26,1.16,2.35,2.02,3.29
				c0.87,0.94,1.9,1.68,3.11,2.22C427.17,89.6,428.5,89.87,429.95,89.87z"/>
			<path class="st0" d="M456.39,67.07h3.73l14.43,20.69h0.07V67.07h2.96v24.91h-3.73L459.42,71.3h-0.07v20.69h-2.96V67.07z"/>
		</g>
	</g>
	<g>
		<g>
			<path class="st0" d="M130.08,14V3.29h39.48V14h-13.67v36.13h-12.08V14H130.08z"/>
			<path class="st0" d="M198.52,50.13V31.4h-14.81v18.73h-12.49V3.29h12.49v16.93h14.81V3.29H211v46.84H198.52z"/>
			<path class="st0" d="M238.73,50.87c-12.62,0-24.43-7.9-24.43-24.15c0-16.19,12.21-24.16,24.63-24.16
				c12.21,0,24.36,7.96,24.36,24.16C263.3,41.03,253.2,50.87,238.73,50.87z M238.8,40.23c5.94,0,12.01-4.35,12.01-13.52
				c0-9.37-5.94-13.52-11.87-13.52c-6.21,0-12.15,3.88-12.15,13.52C226.79,35.94,232.66,40.23,238.8,40.23z"/>
			<path class="st0" d="M308.91,3.16h4.44v46.97h-12.49V28.52l-10.17,10.44h-1.43l-10.17-10.44v21.61H266.6V3.16h4.44l18.97,20.27
				L308.91,3.16z"/>
			<path class="st0" d="M318.24,50.06V3.23c7.1,0,13.99-0.07,21.09,0c11.46,0,17.33,8.76,17.13,17.6c0,8.56-5.8,17.13-17.13,17.13
				h-8.6v12.11H318.24z M339.32,27.31c3.28,0,5.19-3.41,5.19-6.82c0-3.35-1.77-6.62-5.19-6.62h-8.8v13.45H339.32z"/>
			<path class="st0" d="M369.15,35.41c0,3.21,3.75,4.82,7.57,4.82c3.55,0,7.3-1.41,7.3-4.42c0-4.48-5.32-4.35-8.8-4.55
				c-8.73-0.54-17.47-3.61-17.47-13.38c0-10.17,8.8-15.32,18.56-15.32c9.21,0,18.56,5.15,18.36,15.32H383
				c-0.07-3.21-3.14-4.55-6.48-4.55c-2.8,0-6.48,0.74-6.48,4.28c0,3.15,2.73,3.55,7.3,4.01c10.17,0.87,19.04,2.88,19.04,14.25
				c0,9.84-9.76,14.99-19.52,14.99c-10.1,0-19.79-4.95-19.58-15.46H369.15z"/>
			<path class="st0" d="M422.44,50.87c-12.62,0-24.43-7.9-24.43-24.15c0-16.19,12.21-24.16,24.63-24.16
				c12.21,0,24.36,7.96,24.36,24.16C447.01,41.03,436.91,50.87,422.44,50.87z M422.51,40.23c5.94,0,12.01-4.35,12.01-13.52
				c0-9.37-5.94-13.52-11.87-13.52c-6.21,0-12.15,3.88-12.15,13.52C410.5,35.94,416.37,40.23,422.51,40.23z"/>
			<path class="st0" d="M462.8,25.98v24.15h-12.49V3.09h3.89l24.91,23.08V3.29h12.49v46.97h-3.68L462.8,25.98z"/>
		</g>
	</g>
	<rect x="124.45" y="57.13" class="st1" width="373.79" height="2.81"/>
</g>
<g>
	<g>
		<polygon class="st0" points="112.08,2.6 2.34,2.6 2.34,39.81 26.01,39.81 26.01,39.77 57.28,17.62 88.47,39.77 88.47,39.81 
			112.08,39.81 		"/>
	</g>
	<path class="st1" d="M83.33,43.42c0,0-12.12-6.4-25.94,1.4c-13.82,7.8-25.54,1.75-26.52,1.16c-0.91-0.56-1.57-0.25-1.57,0.75v45.26
		h55.53c0,0,0-46.38,0-47.04C84.83,44.08,83.89,43.71,83.33,43.42z"/>
	<g>
		<path class="st2" d="M65.99,62.13c-16.93-5.78-31.74-0.19-36.69,2.11v14.55c5.44,1.71,18.7,4.64,31.93-1.71
			c12.26-5.89,20.11-2.99,23.61-0.83V66.22C82.53,66.55,77.4,66.02,65.99,62.13z"/>
		<path class="st3" d="M61.23,77.07C48,83.43,34.74,80.49,29.3,78.78v13.2h55.53V76.24C81.33,74.09,73.49,71.18,61.23,77.07z"/>
	</g>
</g>
</svg>
